<?xml version="1.0" encoding="UTF-8"?><svg id="Layer_2" xmlns="http://www.w3.org/2000/svg" viewBox="0 0 272.75 84.39"><defs><style>.cls-1{fill:#42a667;}</style></defs><g id="Layer_1-2"><g><path class="cls-1" d="M40.15,14.3C27.36,7.18,11.17,11.79,4.04,24.57-.1,32.02-1.1,40.63,1.23,48.82c2.33,8.2,7.71,14.99,15.16,19.14,4.93,2.74,10.27,4.35,15.86,4.77l5.13,.39,.77-10.26-5.13-.38c-4.09-.31-8-1.49-11.62-3.51-2.4-1.33-4.47-3.07-6.17-5.13,5.59,1.25,11.34,1.44,16.78,.49,7.97-1.39,14.08-4.94,16.76-9.75,2.89-5.2,3.59-11.21,1.96-16.93-1.63-5.72-5.39-10.46-10.58-13.36Zm-.37,25.28c-2,3.59-14.86,8.13-28.57,2.2l-.88-.38c-.26-4.08,.66-8.16,2.7-11.82,4.36-7.83,14.28-10.65,22.12-6.29,2.8,1.56,4.82,4.11,5.7,7.19,.88,3.08,.5,6.31-1.06,9.11Z"/><path class="cls-1" d="M176.04,14.95c-5.16-2.28-10.62-3.39-16.23-3.31l-5.14,.08,.17,10.28,5.14-.08c4.1-.07,8.11,.75,11.9,2.43,2.53,1.12,4.75,2.68,6.59,4.54-5.67-.73-11.42-.39-16.74,1.05-7.81,2.11-13.58,6.21-15.8,11.24-4.97,11.22,.12,24.4,11.35,29.37,13.38,5.92,29.09-.14,35.02-13.53,3.44-7.79,3.65-16.46,.58-24.4-3.07-7.95-9.05-14.22-16.84-17.67Zm6.85,37.91c-3.63,8.2-13.26,11.92-21.45,8.29-6.04-2.67-8.78-9.76-6.1-15.8,1.66-3.75,14.06-9.46,28.26-4.8l.89,.29c.61,3.94,.14,8.11-1.59,12.02Z"/><path class="cls-1" d="M129.03,16.31V48.54c0,7.68-6.25,13.93-13.93,13.93s-13.93-6.25-13.93-13.93V11.17h-10.29V48.54c0,13.35,10.86,24.21,24.21,24.21s24.21-10.86,24.21-24.21V11.17h-10.28v5.14Z"/><path class="cls-1" d="M68.75,48.53V21.31h12.12V11.03h-12.12V0h-10.28V48.53c0,13.35,10.86,24.21,24.21,24.21h5.14v-10.29h-5.14c-7.68,0-13.93-6.25-13.93-13.93Z"/><path class="cls-1" d="M214.65,35.85v48.54h10.28V49.32h12.12v-10.28h-12.12v-3.19c0-7.68,6.25-13.93,13.93-13.93h5.14V11.64h-5.14c-13.35,0-24.21,10.86-24.21,24.21Z"/><rect class="cls-1" x="251.54" y="5.14" width="10.28" height="10.71"/><rect class="cls-1" x="196.6" y="57.88" width="10.28" height="10.71"/><path class="cls-1" d="M267.6,62.93c-4.23,0-5.57-.63-5.57-13.93V24.8h-10.28v24.2c0,5.36,0,10.89,1.77,15.37,1.59,4.03,5.33,8.84,14.09,8.84h5.15v-10.28h-5.15Z"/></g></g></svg>