<?xml version="1.0" encoding="utf-8"?><svg xmlns="http://www.w3.org/2000/svg" viewBox="0 0 300 66.7"><defs><style>.a,.b,.c{fill:#fff;}.b{opacity:0.7;}.c{opacity:0.25;}</style></defs><path class="a" d="M85.26,9.17V43.52c0,3.93.86,5.5,3.5,5.5a12.39,12.39,0,0,0,4.36-1.14l2.14,6.64a18.9,18.9,0,0,1-9.07,2.28C75.91,56.8,75.34,51,75.34,45V14.66a5.48,5.48,0,0,1,5.48-5.49Z"/><path class="a" d="M127.9,48.52l.71,7.21h-8.5l-.5-3.64-.35-.07c-2.15,3.28-5.72,4.71-9.57,4.71-10.36,0-13.86-7.85-13.86-17.49,0-12.57,6.29-20.79,18.93-20.79A42.6,42.6,0,0,1,127.9,21.1ZM118,26.6a11.79,11.79,0,0,0-4.5-.79c-5.85,0-7.85,5.86-7.85,12.85,0,5.79,1.21,10.86,6.5,10.86A5.51,5.51,0,0,0,118,44.16Z"/><path class="a" d="M140.54,4a5.28,5.28,0,0,1,5.57,5.21c0,3.07-2.29,5.21-5.57,5.21S135,12.24,135,9.17A5.22,5.22,0,0,1,140.54,4Zm-4.93,51.77V25a5.48,5.48,0,0,1,5.48-5.48h4.45v36.2Z"/><path class="a" d="M152.89,55.73V26.24l-.64-6.71h8.28l.72,4.28A12.63,12.63,0,0,1,172,18.45c7.07,0,11.35,4,11.35,12.57V55.73h-9.92V33c0-3.93-.65-6.85-4.43-6.85a6.16,6.16,0,0,0-6.21,6.42V55.73Z"/><path class="a" d="M220.87,48.52l.72,7.21h-8.5l-.5-3.64-.36-.07c-2.14,3.28-5.71,4.71-9.57,4.71-10.35,0-13.85-7.85-13.85-17.49,0-12.57,6.28-20.79,18.92-20.79a42.5,42.5,0,0,1,13.14,2.65ZM211,26.6a11.79,11.79,0,0,0-4.5-.79c-5.86,0-7.85,5.86-7.85,12.85,0,5.79,1.21,10.86,6.49,10.86A5.52,5.52,0,0,0,211,44.16Z"/><path class="a" d="M238.37,9.17V22.6h9.36v7.78h-9.36V44c0,4.14,1.5,5.28,4.5,5.28A9.28,9.28,0,0,0,247.3,48l2.35,6.28a18.12,18.12,0,0,1-9.49,2.57c-11.57,0-11.72-7.71-11.72-13.64V14.66a5.49,5.49,0,0,1,5.49-5.49Z"/><path class="a" d="M258.51,46.45c3.57,0,5.5,2.07,5.5,5.14a4.93,4.93,0,0,1-5.29,5.21c-3.57,0-5.42-2.14-5.42-5.14A5,5,0,0,1,258.51,46.45Z"/><path class="a" d="M278.65,63h-9.93V21.17c0-6.5,2.29-13.5,14.43-13.5a30.58,30.58,0,0,1,13.57,3.21l-2.36,6.5A25.19,25.19,0,0,0,285.07,15c-4.07,0-6.42,1.5-6.42,5.21V22.6H300V55.73h-9.93V30.38H278.65Z"/><path class="a" d="M57.17,0,47.64,16.67H28.58L38.11,0Z"/><path class="b" d="M38.11,33.35,28.58,16.67H47.64l9.53,16.68Z"/><path class="b" d="M38.11,66.7,28.58,50H47.64L57.17,66.7Z"/><path class="a" d="M57.17,33.35,47.64,50H28.58l9.53-16.67Z"/><path class="a" d="M0,33.35,9.53,16.67h19L19.06,33.35Z"/><path class="b" d="M19.06,33.35,28.58,50h-19L0,33.35Z"/><polygon class="c" points="28.58 50.02 19.06 33.35 28.58 16.67 38.11 33.35 28.58 50.02"/><polygon class="c" points="57.17 33.35 47.64 16.67 57.17 0 66.69 16.67 57.17 33.35"/><polygon class="c" points="57.17 66.69 47.64 50.02 57.17 33.35 66.69 50.02 57.17 66.69"/></svg>