<svg fill="#0d141a" viewBox="0 0 125.02880859375 17.71044921875" height="100%" width="100%" xmlns="http://www.w3.org/2000/svg"><path preserveAspectRatio="none" d="M3.37 1.13L3.37 14.78L10.52 14.78L10.52 17.49L0 17.49L0 1.13L3.37 1.13ZM22.56 17.49L19.28 17.49Q19.06 17.05 18.96 16.40L18.96 16.40Q17.78 17.71 15.89 17.71L15.89 17.71Q14.11 17.71 12.93 16.68Q11.76 15.64 11.76 14.07L11.76 14.07Q11.76 12.14 13.19 11.11Q14.62 10.07 17.33 10.06L17.33 10.06L18.82 10.06L18.82 9.37Q18.82 8.52 18.39 8.02Q17.96 7.51 17.03 7.51L17.03 7.51Q16.21 7.51 15.74 7.91Q15.27 8.30 15.27 8.98L15.27 8.98L12.03 8.98Q12.03 7.93 12.68 7.03Q13.33 6.13 14.52 5.62Q15.71 5.11 17.19 5.11L17.19 5.11Q19.44 5.11 20.76 6.24Q22.08 7.37 22.08 9.41L22.08 9.41L22.08 14.68Q22.09 16.41 22.56 17.29L22.56 17.29L22.56 17.49ZM16.60 15.23L16.60 15.23Q17.32 15.23 17.92 14.91Q18.53 14.59 18.82 14.05L18.82 14.05L18.82 11.96L17.61 11.96Q15.17 11.96 15.02 13.65L15.02 13.65L15.00 13.84Q15.00 14.44 15.43 14.84Q15.86 15.23 16.60 15.23ZM28.00 5.33L28.00 17.49L24.74 17.49L24.74 5.33L28.00 5.33ZM24.55 2.19L24.55 2.19Q24.55 1.46 25.04 0.99Q25.53 0.52 26.37 0.52L26.37 0.52Q27.20 0.52 27.69 0.99Q28.19 1.46 28.19 2.19L28.19 2.19Q28.19 2.93 27.69 3.40Q27.19 3.87 26.37 3.87Q25.55 3.87 25.05 3.40Q24.55 2.93 24.55 2.19ZM30.60 5.33L33.66 5.33L33.76 6.74Q35.06 5.11 37.25 5.11L37.25 5.11Q39.18 5.11 40.13 6.24Q41.07 7.38 41.09 9.64L41.09 9.64L41.09 17.49L37.85 17.49L37.85 9.71Q37.85 8.68 37.40 8.22Q36.95 7.75 35.90 7.75L35.90 7.75Q34.53 7.75 33.85 8.92L33.85 8.92L33.85 17.49L30.60 17.49L30.60 5.33ZM53.87 17.49L50.59 17.49Q50.37 17.05 50.27 16.40L50.27 16.40Q49.09 17.71 47.20 17.71L47.20 17.71Q45.42 17.71 44.24 16.68Q43.07 15.64 43.07 14.07L43.07 14.07Q43.07 12.14 44.50 11.11Q45.93 10.07 48.64 10.06L48.64 10.06L50.13 10.06L50.13 9.37Q50.13 8.52 49.70 8.02Q49.27 7.51 48.34 7.51L48.34 7.51Q47.52 7.51 47.05 7.91Q46.58 8.30 46.58 8.98L46.58 8.98L43.34 8.98Q43.34 7.93 43.99 7.03Q44.64 6.13 45.83 5.62Q47.02 5.11 48.50 5.11L48.50 5.11Q50.75 5.11 52.07 6.24Q53.39 7.37 53.39 9.41L53.39 9.41L53.39 14.68Q53.40 16.41 53.87 17.29L53.87 17.29L53.87 17.49ZM47.91 15.23L47.91 15.23Q48.63 15.23 49.23 14.91Q49.84 14.59 50.13 14.05L50.13 14.05L50.13 11.96L48.92 11.96Q46.48 11.96 46.33 13.65L46.33 13.65L46.31 13.84Q46.31 14.44 46.74 14.84Q47.17 15.23 47.91 15.23ZM63.42 17.49L60.30 12.61L59.13 13.78L59.13 17.49L55.88 17.49L55.88 0.24L59.13 0.24L59.13 9.79L59.76 8.98L62.87 5.33L66.77 5.33L62.37 10.40L67.15 17.49L63.42 17.49ZM67.66 11.44L67.66 11.30Q67.66 9.49 68.36 8.07Q69.06 6.66 70.36 5.88Q71.67 5.11 73.40 5.11L73.40 5.11Q75.86 5.11 77.42 6.61Q78.97 8.12 79.15 10.70L79.15 10.70L79.17 11.53Q79.17 14.33 77.61 16.02Q76.05 17.71 73.42 17.71Q70.80 17.71 69.23 16.03Q67.66 14.34 67.66 11.44L67.66 11.44ZM70.91 11.53L70.91 11.53Q70.91 13.26 71.56 14.18Q72.21 15.09 73.42 15.09L73.42 15.09Q74.60 15.09 75.27 14.19Q75.93 13.29 75.93 11.30L75.93 11.30Q75.93 9.60 75.27 8.67Q74.60 7.74 73.40 7.74L73.40 7.74Q72.21 7.74 71.56 8.66Q70.91 9.59 70.91 11.53ZM81.11 5.33L84.16 5.33L84.26 6.74Q85.56 5.11 87.75 5.11L87.75 5.11Q89.69 5.11 90.63 6.24Q91.57 7.38 91.60 9.64L91.60 9.64L91.60 17.49L88.35 17.49L88.35 9.71Q88.35 8.68 87.90 8.22Q87.45 7.75 86.41 7.75L86.41 7.75Q85.04 7.75 84.35 8.92L84.35 8.92L84.35 17.49L81.11 17.49L81.11 5.33ZM99.65 17.71L99.65 17.71Q96.98 17.71 95.30 16.07Q93.62 14.43 93.62 11.70L93.62 11.70L93.62 11.39Q93.62 9.56 94.32 8.11Q95.03 6.67 96.33 5.89Q97.63 5.11 99.29 5.11L99.29 5.11Q101.78 5.11 103.21 6.68Q104.65 8.25 104.65 11.14L104.65 11.14L104.65 12.47L96.91 12.47Q97.06 13.66 97.86 14.38Q98.65 15.09 99.86 15.09L99.86 15.09Q101.74 15.09 102.79 13.73L102.79 13.73L104.39 15.52Q103.66 16.55 102.41 17.13Q101.16 17.71 99.65 17.71ZM99.28 7.74L99.28 7.74Q98.31 7.74 97.71 8.39Q97.11 9.04 96.94 10.25L96.94 10.25L101.46 10.25L101.46 10.00Q101.43 8.92 100.87 8.33Q100.31 7.74 99.28 7.74ZM106.66 15.89L106.66 15.89Q106.66 15.12 107.18 14.63Q107.70 14.15 108.49 14.15L108.49 14.15Q109.28 14.15 109.81 14.63Q110.33 15.12 110.33 15.89L110.33 15.89Q110.33 16.65 109.81 17.13Q109.29 17.61 108.49 17.61L108.49 17.61Q107.69 17.61 107.17 17.13Q106.66 16.65 106.66 15.89ZM117.31 17.49L114.06 17.49L114.06 7.72L112.25 7.72L112.25 5.33L114.06 5.33L114.06 4.30Q114.06 2.26 115.23 1.13Q116.40 0 118.52 0L118.52 0Q119.19 0 120.17 0.22L120.17 0.22L120.13 2.74Q119.73 2.64 119.14 2.64L119.14 2.64Q117.31 2.64 117.31 4.36L117.31 4.36L117.31 5.33L119.73 5.33L119.73 7.72L117.31 7.72L117.31 17.49ZM124.84 5.33L124.84 17.49L121.58 17.49L121.58 5.33L124.84 5.33ZM121.39 2.19L121.39 2.19Q121.39 1.46 121.88 0.99Q122.37 0.52 123.21 0.52L123.21 0.52Q124.04 0.52 124.53 0.99Q125.03 1.46 125.03 2.19L125.03 2.19Q125.03 2.93 124.53 3.40Q124.03 3.87 123.21 3.87Q122.39 3.87 121.89 3.40Q121.39 2.93 121.39 2.19Z"></path></svg>