<?xml version="1.0" encoding="UTF-8"?><svg xmlns="http://www.w3.org/2000/svg" xmlns:xlink="http://www.w3.org/1999/xlink" width="1500pt" zoomAndPan="magnify" viewBox="0 0 1500 299.999988" height="299.999988pt" preserveAspectRatio="xMidYMid meet" version="1.2"><defs><g/><clipPath xml:id="clip1" id="clip1"><path d="M 55.5 125 L 224 125 L 224 283.890625 L 55.5 283.890625 Z M 55.5 125 "/></clipPath></defs><g xml:id="surface1" id="surface1"><path style=" stroke:none;fill-rule:nonzero;fill:rgb(97.24884%,82.348633%,50.588989%);fill-opacity:1;" d="M 218.554688 104.21875 C 216.992188 113.089844 208.375 118.988281 199.3125 117.390625 C 190.246094 115.796875 184.167969 107.308594 185.730469 98.4375 L 196.625 36.597656 C 198.1875 27.722656 206.804688 21.828125 215.867188 23.425781 C 224.933594 25.019531 231.011719 33.507812 229.449219 42.378906 L 218.554688 104.21875 "/><g clip-rule="nonzero" clip-path="url(#clip1)"><path style=" stroke:none;fill-rule:nonzero;fill:rgb(18.818665%,32.548523%,44.709778%);fill-opacity:1;" d="M 223.882812 204.5625 C 223.882812 248.289062 186.1875 283.738281 139.691406 283.738281 C 93.191406 283.738281 55.5 248.289062 55.5 204.5625 C 55.5 160.832031 93.191406 125.386719 139.691406 125.386719 C 186.1875 125.386719 223.882812 160.832031 223.882812 204.5625 "/></g><path style=" stroke:none;fill-rule:nonzero;fill:rgb(100%,100%,100%);fill-opacity:1;" d="M 201.375 204.5625 C 201.375 238.621094 173.757812 266.226562 139.691406 266.226562 C 105.625 266.226562 78.007812 238.621094 78.007812 204.5625 C 78.007812 170.503906 105.625 142.898438 139.691406 142.898438 C 173.757812 142.898438 201.375 170.503906 201.375 204.5625 "/><path style=" stroke:none;fill-rule:nonzero;fill:rgb(89.7995%,72.549438%,36.079407%);fill-opacity:1;" d="M 195.433594 199.289062 C 195.433594 230.941406 171.457031 256.597656 141.875 256.597656 C 112.292969 256.597656 88.3125 230.941406 88.3125 199.289062 C 88.3125 167.640625 112.292969 141.984375 141.875 141.984375 C 171.457031 141.984375 195.433594 167.640625 195.433594 199.289062 "/><path style=" stroke:none;fill-rule:nonzero;fill:rgb(97.24884%,82.348633%,50.588989%);fill-opacity:1;" d="M 228.382812 185.214844 C 228.382812 216.082031 204.472656 241.105469 174.980469 241.105469 L 138.265625 241.105469 C 108.769531 241.105469 84.859375 216.082031 84.859375 185.214844 L 84.859375 129.324219 C 84.859375 98.457031 108.769531 73.433594 138.265625 73.433594 L 174.980469 73.433594 C 204.472656 73.433594 228.382812 98.457031 228.382812 129.324219 L 228.382812 185.214844 "/><path style=" stroke:none;fill-rule:nonzero;fill:rgb(89.7995%,72.549438%,36.079407%);fill-opacity:1;" d="M 126.953125 147.835938 C 126.953125 147.835938 148.59375 177.109375 185.484375 167.421875 C 185.484375 167.421875 205.367188 169.320312 187.710938 199.289062 C 170.054688 229.257812 223.992188 215.839844 231.382812 191.679688 C 238.773438 167.523438 216.125 63.019531 216.125 63.019531 C 216.125 63.019531 228.855469 91.042969 179.910156 108.203125 C 130.960938 125.359375 126.953125 147.835938 126.953125 147.835938 "/><path style=" stroke:none;fill-rule:nonzero;fill:rgb(41.178894%,20.388794%,13.328552%);fill-opacity:1;" d="M 251.171875 195.933594 L 212.796875 195.933594 L 212.796875 33.972656 L 251.171875 33.972656 L 251.171875 195.933594 "/><path style=" stroke:none;fill-rule:nonzero;fill:rgb(98.039246%,69.40918%,10.5896%);fill-opacity:1;" d="M 251.171875 42.59375 L 212.804688 42.707031 L 212.796875 33.972656 L 251.164062 33.859375 L 251.171875 42.59375 "/><path style=" stroke:none;fill-rule:nonzero;fill:rgb(97.24884%,61.178589%,5.879211%);fill-opacity:1;" d="M 216.234375 42.640625 L 214.304688 42.695312 L 214.222656 33.960938 L 216.152344 33.910156 L 216.234375 42.640625 "/><path style=" stroke:none;fill-rule:nonzero;fill:rgb(97.24884%,61.178589%,5.879211%);fill-opacity:1;" d="M 220.464844 42.617188 L 218.535156 42.667969 L 218.457031 33.933594 L 220.382812 33.882812 L 220.464844 42.617188 "/><path style=" stroke:none;fill-rule:nonzero;fill:rgb(97.24884%,61.178589%,5.879211%);fill-opacity:1;" d="M 224.695312 42.589844 L 222.769531 42.640625 L 222.6875 33.90625 L 224.613281 33.855469 L 224.695312 42.589844 "/><path style=" stroke:none;fill-rule:nonzero;fill:rgb(97.24884%,61.178589%,5.879211%);fill-opacity:1;" d="M 228.925781 42.5625 L 227 42.613281 L 226.917969 33.878906 L 228.847656 33.828125 L 228.925781 42.5625 "/><path style=" stroke:none;fill-rule:nonzero;fill:rgb(97.24884%,61.178589%,5.879211%);fill-opacity:1;" d="M 233.15625 42.535156 L 231.230469 42.585938 L 231.148438 33.851562 L 233.078125 33.800781 L 233.15625 42.535156 "/><path style=" stroke:none;fill-rule:nonzero;fill:rgb(97.24884%,61.178589%,5.879211%);fill-opacity:1;" d="M 237.390625 42.507812 L 235.460938 42.558594 L 235.378906 33.828125 L 237.308594 33.773438 L 237.390625 42.507812 "/><path style=" stroke:none;fill-rule:nonzero;fill:rgb(97.24884%,61.178589%,5.879211%);fill-opacity:1;" d="M 241.621094 42.480469 L 239.695312 42.53125 L 239.609375 33.800781 L 241.539062 33.746094 L 241.621094 42.480469 "/><path style=" stroke:none;fill-rule:nonzero;fill:rgb(97.24884%,61.178589%,5.879211%);fill-opacity:1;" d="M 245.851562 42.453125 L 243.925781 42.507812 L 243.84375 33.773438 L 245.769531 33.722656 L 245.851562 42.453125 "/><path style=" stroke:none;fill-rule:nonzero;fill:rgb(97.24884%,61.178589%,5.879211%);fill-opacity:1;" d="M 250.085938 42.425781 L 248.15625 42.476562 L 248.074219 33.742188 L 250 33.691406 L 250.085938 42.425781 "/><path style=" stroke:none;fill-rule:nonzero;fill:rgb(98.039246%,69.40918%,10.5896%);fill-opacity:1;" d="M 251.171875 52.808594 L 212.804688 52.921875 L 212.796875 44.1875 L 251.164062 44.074219 L 251.171875 52.808594 "/><path style=" stroke:none;fill-rule:nonzero;fill:rgb(97.24884%,61.178589%,5.879211%);fill-opacity:1;" d="M 216.234375 52.859375 L 214.304688 52.910156 L 214.222656 44.175781 L 216.152344 44.125 L 216.234375 52.859375 "/><path style=" stroke:none;fill-rule:nonzero;fill:rgb(97.24884%,61.178589%,5.879211%);fill-opacity:1;" d="M 220.464844 52.832031 L 218.535156 52.882812 L 218.457031 44.152344 L 220.382812 44.097656 L 220.464844 52.832031 "/><path style=" stroke:none;fill-rule:nonzero;fill:rgb(97.24884%,61.178589%,5.879211%);fill-opacity:1;" d="M 224.695312 52.804688 L 222.769531 52.855469 L 222.6875 44.125 L 224.613281 44.070312 L 224.695312 52.804688 "/><path style=" stroke:none;fill-rule:nonzero;fill:rgb(97.24884%,61.178589%,5.879211%);fill-opacity:1;" d="M 228.925781 52.777344 L 227 52.832031 L 226.917969 44.097656 L 228.847656 44.046875 L 228.925781 52.777344 "/><path style=" stroke:none;fill-rule:nonzero;fill:rgb(97.24884%,61.178589%,5.879211%);fill-opacity:1;" d="M 233.15625 52.75 L 231.230469 52.800781 L 231.148438 44.070312 L 233.078125 44.015625 L 233.15625 52.75 "/><path style=" stroke:none;fill-rule:nonzero;fill:rgb(97.24884%,61.178589%,5.879211%);fill-opacity:1;" d="M 237.390625 52.722656 L 235.460938 52.773438 L 235.378906 44.042969 L 237.308594 43.988281 L 237.390625 52.722656 "/><path style=" stroke:none;fill-rule:nonzero;fill:rgb(97.24884%,61.178589%,5.879211%);fill-opacity:1;" d="M 241.621094 52.695312 L 239.695312 52.746094 L 239.609375 44.015625 L 241.539062 43.960938 L 241.621094 52.695312 "/><path style=" stroke:none;fill-rule:nonzero;fill:rgb(97.24884%,61.178589%,5.879211%);fill-opacity:1;" d="M 245.851562 52.667969 L 243.925781 52.722656 L 243.84375 43.988281 L 245.769531 43.9375 L 245.851562 52.667969 "/><path style=" stroke:none;fill-rule:nonzero;fill:rgb(97.24884%,61.178589%,5.879211%);fill-opacity:1;" d="M 250.085938 52.640625 L 248.15625 52.695312 L 248.074219 43.960938 L 250 43.910156 L 250.085938 52.640625 "/><path style=" stroke:none;fill-rule:nonzero;fill:rgb(98.039246%,69.40918%,10.5896%);fill-opacity:1;" d="M 251.171875 63.027344 L 212.804688 63.136719 L 212.796875 54.40625 L 251.164062 54.292969 L 251.171875 63.027344 "/><path style=" stroke:none;fill-rule:nonzero;fill:rgb(97.24884%,61.178589%,5.879211%);fill-opacity:1;" d="M 216.234375 63.074219 L 214.304688 63.125 L 214.222656 54.394531 L 216.152344 54.339844 L 216.234375 63.074219 "/><path style=" stroke:none;fill-rule:nonzero;fill:rgb(97.24884%,61.178589%,5.879211%);fill-opacity:1;" d="M 220.464844 63.046875 L 218.535156 63.097656 L 218.457031 54.367188 L 220.382812 54.3125 L 220.464844 63.046875 "/><path style=" stroke:none;fill-rule:nonzero;fill:rgb(97.24884%,61.178589%,5.879211%);fill-opacity:1;" d="M 224.695312 63.019531 L 222.769531 63.074219 L 222.6875 54.339844 L 224.613281 54.285156 L 224.695312 63.019531 "/><path style=" stroke:none;fill-rule:nonzero;fill:rgb(97.24884%,61.178589%,5.879211%);fill-opacity:1;" d="M 228.925781 62.992188 L 227 63.046875 L 226.917969 54.3125 L 228.847656 54.261719 L 228.925781 62.992188 "/><path style=" stroke:none;fill-rule:nonzero;fill:rgb(97.24884%,61.178589%,5.879211%);fill-opacity:1;" d="M 233.15625 62.96875 L 231.230469 63.019531 L 231.148438 54.285156 L 233.078125 54.234375 L 233.15625 62.96875 "/><path style=" stroke:none;fill-rule:nonzero;fill:rgb(97.24884%,61.178589%,5.879211%);fill-opacity:1;" d="M 237.390625 62.941406 L 235.460938 62.988281 L 235.378906 54.257812 L 237.308594 54.207031 L 237.390625 62.941406 "/><path style=" stroke:none;fill-rule:nonzero;fill:rgb(97.24884%,61.178589%,5.879211%);fill-opacity:1;" d="M 241.621094 62.914062 L 239.695312 62.960938 L 239.609375 54.230469 L 241.539062 54.175781 L 241.621094 62.914062 "/><path style=" stroke:none;fill-rule:nonzero;fill:rgb(97.24884%,61.178589%,5.879211%);fill-opacity:1;" d="M 245.851562 62.882812 L 243.925781 62.9375 L 243.84375 54.203125 L 245.769531 54.152344 L 245.851562 62.882812 "/><path style=" stroke:none;fill-rule:nonzero;fill:rgb(97.24884%,61.178589%,5.879211%);fill-opacity:1;" d="M 250.085938 62.855469 L 248.15625 62.910156 L 248.074219 54.175781 L 250 54.125 L 250.085938 62.855469 "/><path style=" stroke:none;fill-rule:nonzero;fill:rgb(98.039246%,69.40918%,10.5896%);fill-opacity:1;" d="M 251.171875 73.242188 L 212.804688 73.355469 L 212.796875 64.621094 L 251.164062 64.507812 L 251.171875 73.242188 "/><path style=" stroke:none;fill-rule:nonzero;fill:rgb(97.24884%,61.178589%,5.879211%);fill-opacity:1;" d="M 216.234375 73.292969 L 214.304688 73.34375 L 214.222656 64.609375 L 216.152344 64.558594 L 216.234375 73.292969 "/><path style=" stroke:none;fill-rule:nonzero;fill:rgb(97.24884%,61.178589%,5.879211%);fill-opacity:1;" d="M 220.464844 73.265625 L 218.535156 73.316406 L 218.457031 64.582031 L 220.382812 64.53125 L 220.464844 73.265625 "/><path style=" stroke:none;fill-rule:nonzero;fill:rgb(97.24884%,61.178589%,5.879211%);fill-opacity:1;" d="M 224.695312 73.238281 L 222.769531 73.289062 L 222.6875 64.554688 L 224.613281 64.503906 L 224.695312 73.238281 "/><path style=" stroke:none;fill-rule:nonzero;fill:rgb(97.24884%,61.178589%,5.879211%);fill-opacity:1;" d="M 228.925781 73.210938 L 227 73.261719 L 226.917969 64.527344 L 228.847656 64.476562 L 228.925781 73.210938 "/><path style=" stroke:none;fill-rule:nonzero;fill:rgb(97.24884%,61.178589%,5.879211%);fill-opacity:1;" d="M 233.15625 73.183594 L 231.230469 73.234375 L 231.148438 64.5 L 233.078125 64.449219 L 233.15625 73.183594 "/><path style=" stroke:none;fill-rule:nonzero;fill:rgb(97.24884%,61.178589%,5.879211%);fill-opacity:1;" d="M 237.390625 73.15625 L 235.460938 73.207031 L 235.378906 64.472656 L 237.308594 64.421875 L 237.390625 73.15625 "/><path style=" stroke:none;fill-rule:nonzero;fill:rgb(97.24884%,61.178589%,5.879211%);fill-opacity:1;" d="M 241.621094 73.128906 L 239.695312 73.179688 L 239.609375 64.445312 L 241.539062 64.394531 L 241.621094 73.128906 "/><path style=" stroke:none;fill-rule:nonzero;fill:rgb(97.24884%,61.178589%,5.879211%);fill-opacity:1;" d="M 245.851562 73.101562 L 243.925781 73.152344 L 243.84375 64.417969 L 245.769531 64.367188 L 245.851562 73.101562 "/><path style=" stroke:none;fill-rule:nonzero;fill:rgb(97.24884%,61.178589%,5.879211%);fill-opacity:1;" d="M 250.085938 73.074219 L 248.15625 73.125 L 248.074219 64.390625 L 250 64.339844 L 250.085938 73.074219 "/><path style=" stroke:none;fill-rule:nonzero;fill:rgb(98.039246%,69.40918%,10.5896%);fill-opacity:1;" d="M 251.171875 83.457031 L 212.804688 83.570312 L 212.796875 74.835938 L 251.164062 74.722656 L 251.171875 83.457031 "/><path style=" stroke:none;fill-rule:nonzero;fill:rgb(97.24884%,61.178589%,5.879211%);fill-opacity:1;" d="M 216.234375 83.507812 L 214.304688 83.558594 L 214.222656 74.828125 L 216.152344 74.773438 L 216.234375 83.507812 "/><path style=" stroke:none;fill-rule:nonzero;fill:rgb(97.24884%,61.178589%,5.879211%);fill-opacity:1;" d="M 220.464844 83.480469 L 218.535156 83.535156 L 218.457031 74.800781 L 220.382812 74.746094 L 220.464844 83.480469 "/><path style=" stroke:none;fill-rule:nonzero;fill:rgb(97.24884%,61.178589%,5.879211%);fill-opacity:1;" d="M 224.695312 83.453125 L 222.769531 83.507812 L 222.6875 74.769531 L 224.613281 74.722656 L 224.695312 83.453125 "/><path style=" stroke:none;fill-rule:nonzero;fill:rgb(97.24884%,61.178589%,5.879211%);fill-opacity:1;" d="M 228.925781 83.425781 L 227 83.476562 L 226.917969 74.742188 L 228.847656 74.691406 L 228.925781 83.425781 "/><path style=" stroke:none;fill-rule:nonzero;fill:rgb(97.24884%,61.178589%,5.879211%);fill-opacity:1;" d="M 233.15625 83.398438 L 231.230469 83.449219 L 231.148438 74.71875 L 233.078125 74.664062 L 233.15625 83.398438 "/><path style=" stroke:none;fill-rule:nonzero;fill:rgb(97.24884%,61.178589%,5.879211%);fill-opacity:1;" d="M 237.390625 83.371094 L 235.460938 83.421875 L 235.378906 74.691406 L 237.308594 74.636719 L 237.390625 83.371094 "/><path style=" stroke:none;fill-rule:nonzero;fill:rgb(97.24884%,61.178589%,5.879211%);fill-opacity:1;" d="M 241.621094 83.34375 L 239.695312 83.398438 L 239.609375 74.664062 L 241.539062 74.613281 L 241.621094 83.34375 "/><path style=" stroke:none;fill-rule:nonzero;fill:rgb(97.24884%,61.178589%,5.879211%);fill-opacity:1;" d="M 245.851562 83.316406 L 243.925781 83.367188 L 243.84375 74.636719 L 245.769531 74.582031 L 245.851562 83.316406 "/><path style=" stroke:none;fill-rule:nonzero;fill:rgb(97.24884%,61.178589%,5.879211%);fill-opacity:1;" d="M 250.085938 83.289062 L 248.15625 83.339844 L 248.074219 74.609375 L 250 74.554688 L 250.085938 83.289062 "/><path style=" stroke:none;fill-rule:nonzero;fill:rgb(98.039246%,69.40918%,10.5896%);fill-opacity:1;" d="M 251.171875 93.671875 L 212.804688 93.785156 L 212.796875 85.050781 L 251.164062 84.9375 L 251.171875 93.671875 "/><path style=" stroke:none;fill-rule:nonzero;fill:rgb(97.24884%,61.178589%,5.879211%);fill-opacity:1;" d="M 216.234375 93.722656 L 214.304688 93.773438 L 214.222656 85.042969 L 216.152344 84.988281 L 216.234375 93.722656 "/><path style=" stroke:none;fill-rule:nonzero;fill:rgb(97.24884%,61.178589%,5.879211%);fill-opacity:1;" d="M 220.464844 93.695312 L 218.535156 93.75 L 218.457031 85.015625 L 220.382812 84.960938 L 220.464844 93.695312 "/><path style=" stroke:none;fill-rule:nonzero;fill:rgb(97.24884%,61.178589%,5.879211%);fill-opacity:1;" d="M 224.695312 93.667969 L 222.769531 93.722656 L 222.6875 84.988281 L 224.613281 84.9375 L 224.695312 93.667969 "/><path style=" stroke:none;fill-rule:nonzero;fill:rgb(97.24884%,61.178589%,5.879211%);fill-opacity:1;" d="M 228.925781 93.644531 L 227 93.691406 L 226.917969 84.960938 L 228.847656 84.90625 L 228.925781 93.644531 "/><path style=" stroke:none;fill-rule:nonzero;fill:rgb(97.24884%,61.178589%,5.879211%);fill-opacity:1;" d="M 233.15625 93.613281 L 231.230469 93.664062 L 231.148438 84.933594 L 233.078125 84.878906 L 233.15625 93.613281 "/><path style=" stroke:none;fill-rule:nonzero;fill:rgb(97.24884%,61.178589%,5.879211%);fill-opacity:1;" d="M 237.390625 93.585938 L 235.460938 93.636719 L 235.378906 84.90625 L 237.308594 84.851562 L 237.390625 93.585938 "/><path style=" stroke:none;fill-rule:nonzero;fill:rgb(97.24884%,61.178589%,5.879211%);fill-opacity:1;" d="M 241.621094 93.558594 L 239.695312 93.613281 L 239.609375 84.878906 L 241.539062 84.828125 L 241.621094 93.558594 "/><path style=" stroke:none;fill-rule:nonzero;fill:rgb(97.24884%,61.178589%,5.879211%);fill-opacity:1;" d="M 245.851562 93.53125 L 243.925781 93.585938 L 243.84375 84.851562 L 245.769531 84.800781 L 245.851562 93.53125 "/><path style=" stroke:none;fill-rule:nonzero;fill:rgb(97.24884%,61.178589%,5.879211%);fill-opacity:1;" d="M 250.085938 93.507812 L 248.15625 93.558594 L 248.074219 84.824219 L 250 84.773438 L 250.085938 93.507812 "/><path style=" stroke:none;fill-rule:nonzero;fill:rgb(98.039246%,69.40918%,10.5896%);fill-opacity:1;" d="M 251.171875 103.890625 L 212.804688 104.003906 L 212.796875 95.269531 L 251.164062 95.15625 L 251.171875 103.890625 "/><path style=" stroke:none;fill-rule:nonzero;fill:rgb(97.24884%,61.178589%,5.879211%);fill-opacity:1;" d="M 216.234375 103.941406 L 214.304688 103.988281 L 214.222656 95.257812 L 216.152344 95.203125 L 216.234375 103.941406 "/><path style=" stroke:none;fill-rule:nonzero;fill:rgb(97.24884%,61.178589%,5.879211%);fill-opacity:1;" d="M 220.464844 103.910156 L 218.535156 103.964844 L 218.457031 95.230469 L 220.382812 95.179688 L 220.464844 103.910156 "/><path style=" stroke:none;fill-rule:nonzero;fill:rgb(97.24884%,61.178589%,5.879211%);fill-opacity:1;" d="M 224.695312 103.882812 L 222.769531 103.9375 L 222.6875 95.203125 L 224.613281 95.152344 L 224.695312 103.882812 "/><path style=" stroke:none;fill-rule:nonzero;fill:rgb(97.24884%,61.178589%,5.879211%);fill-opacity:1;" d="M 228.925781 103.859375 L 227 103.910156 L 226.917969 95.175781 L 228.847656 95.125 L 228.925781 103.859375 "/><path style=" stroke:none;fill-rule:nonzero;fill:rgb(97.24884%,61.178589%,5.879211%);fill-opacity:1;" d="M 233.15625 103.832031 L 231.230469 103.882812 L 231.148438 95.148438 L 233.078125 95.097656 L 233.15625 103.832031 "/><path style=" stroke:none;fill-rule:nonzero;fill:rgb(97.24884%,61.178589%,5.879211%);fill-opacity:1;" d="M 237.390625 103.804688 L 235.460938 103.855469 L 235.378906 95.121094 L 237.308594 95.070312 L 237.390625 103.804688 "/><path style=" stroke:none;fill-rule:nonzero;fill:rgb(97.24884%,61.178589%,5.879211%);fill-opacity:1;" d="M 241.621094 103.777344 L 239.695312 103.828125 L 239.609375 95.09375 L 241.539062 95.042969 L 241.621094 103.777344 "/><path style=" stroke:none;fill-rule:nonzero;fill:rgb(97.24884%,61.178589%,5.879211%);fill-opacity:1;" d="M 245.851562 103.75 L 243.925781 103.800781 L 243.84375 95.066406 L 245.769531 95.015625 L 245.851562 103.75 "/><path style=" stroke:none;fill-rule:nonzero;fill:rgb(97.24884%,61.178589%,5.879211%);fill-opacity:1;" d="M 250.085938 103.722656 L 248.15625 103.773438 L 248.074219 95.042969 L 250 94.988281 L 250.085938 103.722656 "/><path style=" stroke:none;fill-rule:nonzero;fill:rgb(98.039246%,69.40918%,10.5896%);fill-opacity:1;" d="M 251.171875 114.105469 L 212.804688 114.21875 L 212.796875 105.484375 L 251.164062 105.371094 L 251.171875 114.105469 "/><path style=" stroke:none;fill-rule:nonzero;fill:rgb(97.24884%,61.178589%,5.879211%);fill-opacity:1;" d="M 216.234375 114.15625 L 214.304688 114.207031 L 214.222656 105.472656 L 216.152344 105.421875 L 216.234375 114.15625 "/><path style=" stroke:none;fill-rule:nonzero;fill:rgb(97.24884%,61.178589%,5.879211%);fill-opacity:1;" d="M 220.464844 114.128906 L 218.535156 114.179688 L 218.457031 105.445312 L 220.382812 105.394531 L 220.464844 114.128906 "/><path style=" stroke:none;fill-rule:nonzero;fill:rgb(97.24884%,61.178589%,5.879211%);fill-opacity:1;" d="M 224.695312 114.101562 L 222.769531 114.152344 L 222.6875 105.417969 L 224.613281 105.367188 L 224.695312 114.101562 "/><path style=" stroke:none;fill-rule:nonzero;fill:rgb(97.24884%,61.178589%,5.879211%);fill-opacity:1;" d="M 228.925781 114.074219 L 227 114.125 L 226.917969 105.394531 L 228.847656 105.339844 L 228.925781 114.074219 "/><path style=" stroke:none;fill-rule:nonzero;fill:rgb(97.24884%,61.178589%,5.879211%);fill-opacity:1;" d="M 233.15625 114.046875 L 231.230469 114.097656 L 231.148438 105.367188 L 233.078125 105.3125 L 233.15625 114.046875 "/><path style=" stroke:none;fill-rule:nonzero;fill:rgb(97.24884%,61.178589%,5.879211%);fill-opacity:1;" d="M 237.390625 114.019531 L 235.460938 114.074219 L 235.378906 105.339844 L 237.308594 105.289062 L 237.390625 114.019531 "/><path style=" stroke:none;fill-rule:nonzero;fill:rgb(97.24884%,61.178589%,5.879211%);fill-opacity:1;" d="M 241.621094 113.992188 L 239.695312 114.042969 L 239.609375 105.308594 L 241.539062 105.257812 L 241.621094 113.992188 "/><path style=" stroke:none;fill-rule:nonzero;fill:rgb(97.24884%,61.178589%,5.879211%);fill-opacity:1;" d="M 245.851562 113.964844 L 243.925781 114.015625 L 243.84375 105.28125 L 245.769531 105.230469 L 245.851562 113.964844 "/><path style=" stroke:none;fill-rule:nonzero;fill:rgb(97.24884%,61.178589%,5.879211%);fill-opacity:1;" d="M 250.085938 113.9375 L 248.15625 113.988281 L 248.074219 105.257812 L 250 105.203125 L 250.085938 113.9375 "/><path style=" stroke:none;fill-rule:nonzero;fill:rgb(98.039246%,69.40918%,10.5896%);fill-opacity:1;" d="M 251.171875 124.320312 L 212.804688 124.433594 L 212.796875 115.699219 L 251.164062 115.589844 L 251.171875 124.320312 "/><path style=" stroke:none;fill-rule:nonzero;fill:rgb(97.24884%,61.178589%,5.879211%);fill-opacity:1;" d="M 216.234375 124.371094 L 214.304688 124.425781 L 214.222656 115.691406 L 216.152344 115.640625 L 216.234375 124.371094 "/><path style=" stroke:none;fill-rule:nonzero;fill:rgb(97.24884%,61.178589%,5.879211%);fill-opacity:1;" d="M 220.464844 124.34375 L 218.535156 124.398438 L 218.457031 115.664062 L 220.382812 115.613281 L 220.464844 124.34375 "/><path style=" stroke:none;fill-rule:nonzero;fill:rgb(97.24884%,61.178589%,5.879211%);fill-opacity:1;" d="M 224.695312 124.316406 L 222.769531 124.367188 L 222.6875 115.636719 L 224.613281 115.582031 L 224.695312 124.316406 "/><path style=" stroke:none;fill-rule:nonzero;fill:rgb(97.24884%,61.178589%,5.879211%);fill-opacity:1;" d="M 228.925781 124.289062 L 227 124.339844 L 226.917969 115.609375 L 228.847656 115.554688 L 228.925781 124.289062 "/><path style=" stroke:none;fill-rule:nonzero;fill:rgb(97.24884%,61.178589%,5.879211%);fill-opacity:1;" d="M 233.15625 124.261719 L 231.230469 124.3125 L 231.148438 115.582031 L 233.078125 115.527344 L 233.15625 124.261719 "/><path style=" stroke:none;fill-rule:nonzero;fill:rgb(97.24884%,61.178589%,5.879211%);fill-opacity:1;" d="M 237.390625 124.234375 L 235.460938 124.289062 L 235.378906 115.554688 L 237.308594 115.503906 L 237.390625 124.234375 "/><path style=" stroke:none;fill-rule:nonzero;fill:rgb(97.24884%,61.178589%,5.879211%);fill-opacity:1;" d="M 241.621094 124.210938 L 239.695312 124.261719 L 239.609375 115.527344 L 241.539062 115.476562 L 241.621094 124.210938 "/><path style=" stroke:none;fill-rule:nonzero;fill:rgb(97.24884%,61.178589%,5.879211%);fill-opacity:1;" d="M 245.851562 124.183594 L 243.925781 124.230469 L 243.84375 115.5 L 245.769531 115.445312 L 245.851562 124.183594 "/><path style=" stroke:none;fill-rule:nonzero;fill:rgb(97.24884%,61.178589%,5.879211%);fill-opacity:1;" d="M 250.085938 124.152344 L 248.15625 124.203125 L 248.074219 115.472656 L 250 115.417969 L 250.085938 124.152344 "/><path style=" stroke:none;fill-rule:nonzero;fill:rgb(98.039246%,69.40918%,10.5896%);fill-opacity:1;" d="M 251.171875 134.535156 L 212.804688 134.652344 L 212.796875 125.914062 L 251.164062 125.804688 L 251.171875 134.535156 "/><path style=" stroke:none;fill-rule:nonzero;fill:rgb(97.24884%,61.178589%,5.879211%);fill-opacity:1;" d="M 216.234375 134.585938 L 214.304688 134.640625 L 214.222656 125.90625 L 216.152344 125.855469 L 216.234375 134.585938 "/><path style=" stroke:none;fill-rule:nonzero;fill:rgb(97.24884%,61.178589%,5.879211%);fill-opacity:1;" d="M 220.464844 134.558594 L 218.535156 134.613281 L 218.457031 125.878906 L 220.382812 125.828125 L 220.464844 134.558594 "/><path style=" stroke:none;fill-rule:nonzero;fill:rgb(97.24884%,61.178589%,5.879211%);fill-opacity:1;" d="M 224.695312 134.535156 L 222.769531 134.585938 L 222.6875 125.851562 L 224.613281 125.800781 L 224.695312 134.535156 "/><path style=" stroke:none;fill-rule:nonzero;fill:rgb(97.24884%,61.178589%,5.879211%);fill-opacity:1;" d="M 228.925781 134.507812 L 227 134.558594 L 226.917969 125.824219 L 228.847656 125.773438 L 228.925781 134.507812 "/><path style=" stroke:none;fill-rule:nonzero;fill:rgb(97.24884%,61.178589%,5.879211%);fill-opacity:1;" d="M 233.15625 134.480469 L 231.230469 134.53125 L 231.148438 125.796875 L 233.078125 125.742188 L 233.15625 134.480469 "/><path style=" stroke:none;fill-rule:nonzero;fill:rgb(97.24884%,61.178589%,5.879211%);fill-opacity:1;" d="M 237.390625 134.449219 L 235.460938 134.503906 L 235.378906 125.769531 L 237.308594 125.71875 L 237.390625 134.449219 "/><path style=" stroke:none;fill-rule:nonzero;fill:rgb(97.24884%,61.178589%,5.879211%);fill-opacity:1;" d="M 241.621094 134.421875 L 239.695312 134.476562 L 239.609375 125.742188 L 241.539062 125.691406 L 241.621094 134.421875 "/><path style=" stroke:none;fill-rule:nonzero;fill:rgb(97.24884%,61.178589%,5.879211%);fill-opacity:1;" d="M 245.851562 134.398438 L 243.925781 134.449219 L 243.84375 125.714844 L 245.769531 125.664062 L 245.851562 134.398438 "/><path style=" stroke:none;fill-rule:nonzero;fill:rgb(97.24884%,61.178589%,5.879211%);fill-opacity:1;" d="M 250.085938 134.371094 L 248.15625 134.421875 L 248.074219 125.6875 L 250 125.636719 L 250.085938 134.371094 "/><path style=" stroke:none;fill-rule:nonzero;fill:rgb(98.039246%,69.40918%,10.5896%);fill-opacity:1;" d="M 251.171875 144.753906 L 212.804688 144.867188 L 212.796875 136.132812 L 251.164062 136.019531 L 251.171875 144.753906 "/><path style=" stroke:none;fill-rule:nonzero;fill:rgb(97.24884%,61.178589%,5.879211%);fill-opacity:1;" d="M 216.234375 144.804688 L 214.304688 144.855469 L 214.222656 136.121094 L 216.152344 136.070312 L 216.234375 144.804688 "/><path style=" stroke:none;fill-rule:nonzero;fill:rgb(97.24884%,61.178589%,5.879211%);fill-opacity:1;" d="M 220.464844 144.777344 L 218.535156 144.828125 L 218.457031 136.09375 L 220.382812 136.042969 L 220.464844 144.777344 "/><path style=" stroke:none;fill-rule:nonzero;fill:rgb(97.24884%,61.178589%,5.879211%);fill-opacity:1;" d="M 224.695312 144.75 L 222.769531 144.800781 L 222.6875 136.070312 L 224.613281 136.015625 L 224.695312 144.75 "/><path style=" stroke:none;fill-rule:nonzero;fill:rgb(97.24884%,61.178589%,5.879211%);fill-opacity:1;" d="M 228.925781 144.722656 L 227 144.773438 L 226.917969 136.039062 L 228.847656 135.988281 L 228.925781 144.722656 "/><path style=" stroke:none;fill-rule:nonzero;fill:rgb(97.24884%,61.178589%,5.879211%);fill-opacity:1;" d="M 233.15625 144.695312 L 231.230469 144.746094 L 231.148438 136.011719 L 233.078125 135.964844 L 233.15625 144.695312 "/><path style=" stroke:none;fill-rule:nonzero;fill:rgb(97.24884%,61.178589%,5.879211%);fill-opacity:1;" d="M 237.390625 144.667969 L 235.460938 144.71875 L 235.378906 135.984375 L 237.308594 135.933594 L 237.390625 144.667969 "/><path style=" stroke:none;fill-rule:nonzero;fill:rgb(97.24884%,61.178589%,5.879211%);fill-opacity:1;" d="M 241.621094 144.640625 L 239.695312 144.691406 L 239.609375 135.960938 L 241.539062 135.90625 L 241.621094 144.640625 "/><path style=" stroke:none;fill-rule:nonzero;fill:rgb(97.24884%,61.178589%,5.879211%);fill-opacity:1;" d="M 245.851562 144.613281 L 243.925781 144.664062 L 243.84375 135.933594 L 245.769531 135.878906 L 245.851562 144.613281 "/><path style=" stroke:none;fill-rule:nonzero;fill:rgb(97.24884%,61.178589%,5.879211%);fill-opacity:1;" d="M 250.085938 144.585938 L 248.15625 144.640625 L 248.074219 135.90625 L 250 135.851562 L 250.085938 144.585938 "/><path style=" stroke:none;fill-rule:nonzero;fill:rgb(98.039246%,69.40918%,10.5896%);fill-opacity:1;" d="M 251.171875 154.96875 L 212.804688 155.082031 L 212.796875 146.347656 L 251.164062 146.234375 L 251.171875 154.96875 "/><path style=" stroke:none;fill-rule:nonzero;fill:rgb(97.24884%,61.178589%,5.879211%);fill-opacity:1;" d="M 216.234375 155.019531 L 214.304688 155.074219 L 214.222656 146.335938 L 216.152344 146.289062 L 216.234375 155.019531 "/><path style=" stroke:none;fill-rule:nonzero;fill:rgb(97.24884%,61.178589%,5.879211%);fill-opacity:1;" d="M 220.464844 154.992188 L 218.535156 155.042969 L 218.457031 146.308594 L 220.382812 146.257812 L 220.464844 154.992188 "/><path style=" stroke:none;fill-rule:nonzero;fill:rgb(97.24884%,61.178589%,5.879211%);fill-opacity:1;" d="M 224.695312 154.964844 L 222.769531 155.015625 L 222.6875 146.285156 L 224.613281 146.230469 L 224.695312 154.964844 "/><path style=" stroke:none;fill-rule:nonzero;fill:rgb(97.24884%,61.178589%,5.879211%);fill-opacity:1;" d="M 228.925781 154.9375 L 227 154.988281 L 226.917969 146.257812 L 228.847656 146.203125 L 228.925781 154.9375 "/><path style=" stroke:none;fill-rule:nonzero;fill:rgb(97.24884%,61.178589%,5.879211%);fill-opacity:1;" d="M 233.15625 154.910156 L 231.230469 154.964844 L 231.148438 146.230469 L 233.078125 146.179688 L 233.15625 154.910156 "/><path style=" stroke:none;fill-rule:nonzero;fill:rgb(97.24884%,61.178589%,5.879211%);fill-opacity:1;" d="M 237.390625 154.882812 L 235.460938 154.933594 L 235.378906 146.203125 L 237.308594 146.148438 L 237.390625 154.882812 "/><path style=" stroke:none;fill-rule:nonzero;fill:rgb(97.24884%,61.178589%,5.879211%);fill-opacity:1;" d="M 241.621094 154.855469 L 239.695312 154.90625 L 239.609375 146.175781 L 241.539062 146.121094 L 241.621094 154.855469 "/><path style=" stroke:none;fill-rule:nonzero;fill:rgb(97.24884%,61.178589%,5.879211%);fill-opacity:1;" d="M 245.851562 154.828125 L 243.925781 154.878906 L 243.84375 146.148438 L 245.769531 146.09375 L 245.851562 154.828125 "/><path style=" stroke:none;fill-rule:nonzero;fill:rgb(97.24884%,61.178589%,5.879211%);fill-opacity:1;" d="M 250.085938 154.800781 L 248.15625 154.855469 L 248.074219 146.121094 L 250 146.070312 L 250.085938 154.800781 "/><path style=" stroke:none;fill-rule:nonzero;fill:rgb(98.039246%,69.40918%,10.5896%);fill-opacity:1;" d="M 251.171875 165.183594 L 212.804688 165.296875 L 212.796875 156.566406 L 251.164062 156.453125 L 251.171875 165.183594 "/><path style=" stroke:none;fill-rule:nonzero;fill:rgb(97.24884%,61.178589%,5.879211%);fill-opacity:1;" d="M 216.234375 165.234375 L 214.304688 165.289062 L 214.222656 156.554688 L 216.152344 156.503906 L 216.234375 165.234375 "/><path style=" stroke:none;fill-rule:nonzero;fill:rgb(97.24884%,61.178589%,5.879211%);fill-opacity:1;" d="M 220.464844 165.210938 L 218.535156 165.257812 L 218.457031 156.527344 L 220.382812 156.476562 L 220.464844 165.210938 "/><path style=" stroke:none;fill-rule:nonzero;fill:rgb(97.24884%,61.178589%,5.879211%);fill-opacity:1;" d="M 224.695312 165.179688 L 222.769531 165.230469 L 222.6875 156.5 L 224.613281 156.445312 L 224.695312 165.179688 "/><path style=" stroke:none;fill-rule:nonzero;fill:rgb(97.24884%,61.178589%,5.879211%);fill-opacity:1;" d="M 228.925781 165.152344 L 227 165.207031 L 226.917969 156.472656 L 228.847656 156.417969 L 228.925781 165.152344 "/><path style=" stroke:none;fill-rule:nonzero;fill:rgb(97.24884%,61.178589%,5.879211%);fill-opacity:1;" d="M 233.15625 165.125 L 231.230469 165.179688 L 231.148438 156.445312 L 233.078125 156.394531 L 233.15625 165.125 "/><path style=" stroke:none;fill-rule:nonzero;fill:rgb(97.24884%,61.178589%,5.879211%);fill-opacity:1;" d="M 237.390625 165.101562 L 235.460938 165.152344 L 235.378906 156.417969 L 237.308594 156.367188 L 237.390625 165.101562 "/><path style=" stroke:none;fill-rule:nonzero;fill:rgb(97.24884%,61.178589%,5.879211%);fill-opacity:1;" d="M 241.621094 165.074219 L 239.695312 165.125 L 239.609375 156.390625 L 241.539062 156.339844 L 241.621094 165.074219 "/><path style=" stroke:none;fill-rule:nonzero;fill:rgb(97.24884%,61.178589%,5.879211%);fill-opacity:1;" d="M 245.851562 165.046875 L 243.925781 165.09375 L 243.84375 156.363281 L 245.769531 156.3125 L 245.851562 165.046875 "/><path style=" stroke:none;fill-rule:nonzero;fill:rgb(97.24884%,61.178589%,5.879211%);fill-opacity:1;" d="M 250.085938 165.019531 L 248.15625 165.070312 L 248.074219 156.335938 L 250 156.285156 L 250.085938 165.019531 "/><path style=" stroke:none;fill-rule:nonzero;fill:rgb(98.039246%,69.40918%,10.5896%);fill-opacity:1;" d="M 251.171875 175.402344 L 212.804688 175.515625 L 212.796875 166.78125 L 251.164062 166.667969 L 251.171875 175.402344 "/><path style=" stroke:none;fill-rule:nonzero;fill:rgb(97.24884%,61.178589%,5.879211%);fill-opacity:1;" d="M 216.234375 175.449219 L 214.304688 175.503906 L 214.222656 166.769531 L 216.152344 166.71875 L 216.234375 175.449219 "/><path style=" stroke:none;fill-rule:nonzero;fill:rgb(97.24884%,61.178589%,5.879211%);fill-opacity:1;" d="M 220.464844 175.425781 L 218.535156 175.476562 L 218.457031 166.742188 L 220.382812 166.691406 L 220.464844 175.425781 "/><path style=" stroke:none;fill-rule:nonzero;fill:rgb(97.24884%,61.178589%,5.879211%);fill-opacity:1;" d="M 224.695312 175.398438 L 222.769531 175.449219 L 222.6875 166.714844 L 224.613281 166.664062 L 224.695312 175.398438 "/><path style=" stroke:none;fill-rule:nonzero;fill:rgb(97.24884%,61.178589%,5.879211%);fill-opacity:1;" d="M 228.925781 175.371094 L 227 175.421875 L 226.917969 166.6875 L 228.847656 166.636719 L 228.925781 175.371094 "/><path style=" stroke:none;fill-rule:nonzero;fill:rgb(97.24884%,61.178589%,5.879211%);fill-opacity:1;" d="M 233.15625 175.34375 L 231.230469 175.394531 L 231.148438 166.660156 L 233.078125 166.609375 L 233.15625 175.34375 "/><path style=" stroke:none;fill-rule:nonzero;fill:rgb(97.24884%,61.178589%,5.879211%);fill-opacity:1;" d="M 237.390625 175.316406 L 235.460938 175.367188 L 235.378906 166.632812 L 237.308594 166.582031 L 237.390625 175.316406 "/><path style=" stroke:none;fill-rule:nonzero;fill:rgb(97.24884%,61.178589%,5.879211%);fill-opacity:1;" d="M 241.621094 175.289062 L 239.695312 175.339844 L 239.609375 166.609375 L 241.539062 166.554688 L 241.621094 175.289062 "/><path style=" stroke:none;fill-rule:nonzero;fill:rgb(97.24884%,61.178589%,5.879211%);fill-opacity:1;" d="M 245.851562 175.261719 L 243.925781 175.316406 L 243.84375 166.578125 L 245.769531 166.527344 L 245.851562 175.261719 "/><path style=" stroke:none;fill-rule:nonzero;fill:rgb(97.24884%,61.178589%,5.879211%);fill-opacity:1;" d="M 250.085938 175.234375 L 248.15625 175.285156 L 248.074219 166.550781 L 250 166.5 L 250.085938 175.234375 "/><path style=" stroke:none;fill-rule:nonzero;fill:rgb(98.039246%,69.40918%,10.5896%);fill-opacity:1;" d="M 251.171875 185.617188 L 212.804688 185.730469 L 212.796875 177 L 251.164062 176.882812 L 251.171875 185.617188 "/><path style=" stroke:none;fill-rule:nonzero;fill:rgb(97.24884%,61.178589%,5.879211%);fill-opacity:1;" d="M 216.234375 185.667969 L 214.304688 185.71875 L 214.222656 176.984375 L 216.152344 176.933594 L 216.234375 185.667969 "/><path style=" stroke:none;fill-rule:nonzero;fill:rgb(97.24884%,61.178589%,5.879211%);fill-opacity:1;" d="M 220.464844 185.640625 L 218.535156 185.691406 L 218.457031 176.960938 L 220.382812 176.90625 L 220.464844 185.640625 "/><path style=" stroke:none;fill-rule:nonzero;fill:rgb(97.24884%,61.178589%,5.879211%);fill-opacity:1;" d="M 224.695312 185.613281 L 222.769531 185.664062 L 222.6875 176.933594 L 224.613281 176.878906 L 224.695312 185.613281 "/><path style=" stroke:none;fill-rule:nonzero;fill:rgb(97.24884%,61.178589%,5.879211%);fill-opacity:1;" d="M 228.925781 185.585938 L 227 185.640625 L 226.917969 176.90625 L 228.847656 176.855469 L 228.925781 185.585938 "/><path style=" stroke:none;fill-rule:nonzero;fill:rgb(97.24884%,61.178589%,5.879211%);fill-opacity:1;" d="M 233.15625 185.558594 L 231.230469 185.609375 L 231.148438 176.875 L 233.078125 176.824219 L 233.15625 185.558594 "/><path style=" stroke:none;fill-rule:nonzero;fill:rgb(97.24884%,61.178589%,5.879211%);fill-opacity:1;" d="M 237.390625 185.53125 L 235.460938 185.582031 L 235.378906 176.851562 L 237.308594 176.796875 L 237.390625 185.53125 "/><path style=" stroke:none;fill-rule:nonzero;fill:rgb(97.24884%,61.178589%,5.879211%);fill-opacity:1;" d="M 241.621094 185.503906 L 239.695312 185.554688 L 239.609375 176.824219 L 241.539062 176.769531 L 241.621094 185.503906 "/><path style=" stroke:none;fill-rule:nonzero;fill:rgb(97.24884%,61.178589%,5.879211%);fill-opacity:1;" d="M 245.851562 185.476562 L 243.925781 185.53125 L 243.84375 176.796875 L 245.769531 176.746094 L 245.851562 185.476562 "/><path style=" stroke:none;fill-rule:nonzero;fill:rgb(97.24884%,61.178589%,5.879211%);fill-opacity:1;" d="M 250.085938 185.449219 L 248.15625 185.5 L 248.074219 176.769531 L 250 176.71875 L 250.085938 185.449219 "/><path style=" stroke:none;fill-rule:nonzero;fill:rgb(98.039246%,69.40918%,10.5896%);fill-opacity:1;" d="M 251.171875 195.835938 L 212.804688 195.945312 L 212.796875 187.214844 L 251.164062 187.097656 L 251.171875 195.835938 "/><path style=" stroke:none;fill-rule:nonzero;fill:rgb(97.24884%,61.178589%,5.879211%);fill-opacity:1;" d="M 216.234375 195.882812 L 214.304688 195.933594 L 214.222656 187.203125 L 216.152344 187.148438 L 216.234375 195.882812 "/><path style=" stroke:none;fill-rule:nonzero;fill:rgb(97.24884%,61.178589%,5.879211%);fill-opacity:1;" d="M 220.464844 195.855469 L 218.535156 195.90625 L 218.457031 187.175781 L 220.382812 187.121094 L 220.464844 195.855469 "/><path style=" stroke:none;fill-rule:nonzero;fill:rgb(97.24884%,61.178589%,5.879211%);fill-opacity:1;" d="M 224.695312 195.828125 L 222.769531 195.882812 L 222.6875 187.148438 L 224.613281 187.09375 L 224.695312 195.828125 "/><path style=" stroke:none;fill-rule:nonzero;fill:rgb(97.24884%,61.178589%,5.879211%);fill-opacity:1;" d="M 228.925781 195.800781 L 227 195.855469 L 226.917969 187.121094 L 228.847656 187.070312 L 228.925781 195.800781 "/><path style=" stroke:none;fill-rule:nonzero;fill:rgb(97.24884%,61.178589%,5.879211%);fill-opacity:1;" d="M 233.15625 195.777344 L 231.230469 195.828125 L 231.148438 187.09375 L 233.078125 187.042969 L 233.15625 195.777344 "/><path style=" stroke:none;fill-rule:nonzero;fill:rgb(97.24884%,61.178589%,5.879211%);fill-opacity:1;" d="M 237.390625 195.75 L 235.460938 195.796875 L 235.378906 187.066406 L 237.308594 187.011719 L 237.390625 195.75 "/><path style=" stroke:none;fill-rule:nonzero;fill:rgb(97.24884%,61.178589%,5.879211%);fill-opacity:1;" d="M 241.621094 195.71875 L 239.695312 195.769531 L 239.609375 187.039062 L 241.539062 186.984375 L 241.621094 195.71875 "/><path style=" stroke:none;fill-rule:nonzero;fill:rgb(97.24884%,61.178589%,5.879211%);fill-opacity:1;" d="M 245.851562 195.691406 L 243.925781 195.746094 L 243.84375 187.011719 L 245.769531 186.960938 L 245.851562 195.691406 "/><path style=" stroke:none;fill-rule:nonzero;fill:rgb(97.24884%,61.178589%,5.879211%);fill-opacity:1;" d="M 250.085938 195.664062 L 248.15625 195.71875 L 248.074219 186.984375 L 250 186.933594 L 250.085938 195.664062 "/><path style=" stroke:none;fill-rule:nonzero;fill:rgb(97.24884%,82.348633%,50.588989%);fill-opacity:1;" d="M 212.796875 23.164062 L 248.410156 23.164062 C 248.410156 23.164062 253.921875 23.164062 252.882812 27.941406 C 251.320312 34.25 246.710938 44.5625 233.230469 44.5625 C 213.8125 44.5625 212.796875 23.164062 212.796875 23.164062 "/><path style=" stroke:none;fill-rule:nonzero;fill:rgb(97.24884%,82.348633%,50.588989%);fill-opacity:1;" d="M 185.484375 240.023438 L 227.449219 232.476562 L 265.339844 207.605469 C 265.339844 207.605469 262.074219 186.984375 228.425781 195.804688 C 194.773438 204.628906 193.25 210.652344 193.25 210.652344 L 185.484375 240.023438 "/><path style=" stroke:none;fill-rule:nonzero;fill:rgb(89.7995%,72.549438%,36.079407%);fill-opacity:1;" d="M 116.257812 129.742188 C 116.257812 138.878906 108.851562 146.289062 99.710938 146.289062 C 90.570312 146.289062 83.160156 138.878906 83.160156 129.742188 L 83.160156 86.757812 C 83.160156 77.621094 90.570312 70.214844 99.710938 70.214844 C 108.851562 70.214844 116.257812 77.621094 116.257812 86.757812 L 116.257812 129.742188 "/><path style=" stroke:none;fill-rule:nonzero;fill:rgb(89.7995%,72.549438%,36.079407%);fill-opacity:1;" d="M 152.636719 134.464844 C 152.636719 144.625 143.808594 152.855469 132.921875 152.855469 C 122.035156 152.855469 113.210938 144.625 113.210938 134.464844 L 113.210938 71.316406 C 113.210938 61.160156 122.035156 52.925781 132.921875 52.925781 C 143.808594 52.925781 152.636719 61.160156 152.636719 71.316406 L 152.636719 134.464844 "/><path style=" stroke:none;fill-rule:nonzero;fill:rgb(89.7995%,72.549438%,36.079407%);fill-opacity:1;" d="M 190.777344 127.484375 C 190.777344 137.464844 181.941406 145.554688 171.046875 145.554688 C 160.148438 145.554688 151.316406 137.464844 151.316406 127.484375 L 151.316406 57.9375 C 151.316406 47.957031 160.148438 39.867188 171.046875 39.867188 C 181.941406 39.867188 190.777344 47.957031 190.777344 57.9375 L 190.777344 127.484375 "/><path style=" stroke:none;fill-rule:nonzero;fill:rgb(97.24884%,82.348633%,50.588989%);fill-opacity:1;" d="M 114.558594 123.824219 C 114.558594 132.023438 107.910156 138.667969 99.710938 138.667969 C 91.507812 138.667969 84.859375 132.023438 84.859375 123.824219 L 84.859375 85.253906 C 84.859375 77.054688 91.507812 70.40625 99.710938 70.40625 C 107.910156 70.40625 114.558594 77.054688 114.558594 85.253906 L 114.558594 123.824219 "/><path style=" stroke:none;fill-rule:nonzero;fill:rgb(97.24884%,82.348633%,50.588989%);fill-opacity:1;" d="M 150.09375 124.3125 C 150.09375 133.179688 142.902344 140.367188 134.035156 140.367188 C 125.167969 140.367188 117.976562 133.179688 117.976562 124.3125 L 117.976562 69.199219 C 117.976562 60.332031 125.167969 53.148438 134.035156 53.148438 C 142.902344 53.148438 150.09375 60.332031 150.09375 69.199219 L 150.09375 124.3125 "/><path style=" stroke:none;fill-rule:nonzero;fill:rgb(97.24884%,82.348633%,50.588989%);fill-opacity:1;" d="M 187.710938 121.28125 C 187.710938 130.480469 180.25 137.941406 171.046875 137.941406 C 161.84375 137.941406 154.382812 130.480469 154.382812 121.28125 L 154.382812 57.15625 C 154.382812 47.953125 161.84375 40.496094 171.046875 40.496094 C 180.25 40.496094 187.710938 47.953125 187.710938 57.15625 L 187.710938 121.28125 "/><path style=" stroke:none;fill-rule:nonzero;fill:rgb(97.24884%,82.348633%,50.588989%);fill-opacity:1;" d="M 248.09375 36.027344 L 204.804688 37.042969 C 204.804688 37.042969 196.722656 37.042969 198.246094 31.5 C 200.535156 24.1875 207.339844 11.019531 227.078125 12.234375 C 268.507812 14.777344 248.09375 36.027344 248.09375 36.027344 "/><g style="fill:rgb(0%,21.569824%,33.329773%);fill-opacity:1;"><g transform="translate(289.965064, 223.757255)"><path style="stroke:none;" d="M 65.257812 -21.632812 L 128.867188 -136.933594 C 131.253906 -141.152344 131.984375 -144.632812 131.984375 -147.75 C 131.984375 -155.082031 126.851562 -159.117188 120.621094 -159.117188 C 114.753906 -159.117188 107.605469 -155.265625 103.570312 -146.285156 C 75.523438 -94.222656 59.578125 -64.894531 42.160156 -33.179688 C 39.414062 -28.414062 36.113281 -24.746094 33.546875 -25.664062 C 32.628906 -25.847656 31.894531 -26.945312 31.894531 -28.964844 C 31.894531 -29.878906 32.078125 -30.980469 32.445312 -32.445312 L 57.011719 -138.402344 C 57.375 -140.050781 57.558594 -141.699219 57.558594 -143.167969 C 57.558594 -153.433594 50.042969 -159.117188 42.527344 -159.117188 C 35.929688 -159.117188 29.511719 -154.714844 27.496094 -145.183594 L 3.117188 -34.460938 C 2.382812 -31.53125 2.199219 -28.78125 2.199219 -26.398438 C 2.199219 -9.164062 17.964844 0 32.996094 0 C 43.628906 0 55.910156 -4.765625 65.257812 -21.632812 Z M 65.257812 -21.632812 "/></g></g><g style="fill:rgb(0%,21.569824%,33.329773%);fill-opacity:1;"><g transform="translate(391.33155, 223.757255)"><path style="stroke:none;" d="M 92.757812 -51.695312 C 84.691406 -30.429688 65.441406 -21.8125 49.859375 -21.8125 C 36.480469 -21.8125 28.046875 -28.230469 28.046875 -36.664062 C 28.046875 -38.3125 28.230469 -39.960938 28.964844 -41.796875 L 30.429688 -45.277344 C 35.746094 -41.980469 42.34375 -39.777344 49.679688 -39.777344 C 66.359375 -39.777344 81.023438 -50.226562 85.972656 -66.726562 C 86.890625 -70.207031 87.441406 -73.691406 87.441406 -76.808594 C 87.441406 -94.222656 73.691406 -107.605469 52.976562 -107.605469 C 36.664062 -107.605469 20.714844 -98.074219 14.296875 -79.742188 L 3.484375 -48.394531 C 2.015625 -43.996094 1.101562 -39.59375 1.101562 -35.378906 C 1.101562 -13.566406 21.632812 0 48.394531 0 C 73.875 0 102.839844 -12.464844 114.9375 -47.476562 C 115.488281 -48.945312 115.671875 -50.226562 115.671875 -51.328125 C 115.671875 -57.011719 110.539062 -60.125 105.039062 -60.125 C 99.90625 -60.125 94.40625 -57.375 92.757812 -51.695312 Z M 52.425781 -85.972656 C 57.558594 -85.972656 60.859375 -81.757812 60.859375 -76.441406 C 60.859375 -74.976562 60.675781 -73.507812 60.125 -72.042969 C 58.292969 -65.992188 52.792969 -63.792969 47.292969 -63.792969 C 43.8125 -63.792969 40.328125 -64.527344 37.761719 -65.992188 L 41.613281 -76.992188 C 43.628906 -82.675781 48.210938 -85.972656 52.425781 -85.972656 Z M 52.425781 -85.972656 "/></g></g><g style="fill:rgb(0%,21.569824%,33.329773%);fill-opacity:1;"><g transform="translate(478.217103, 223.757255)"><path style="stroke:none;" d="M 92.941406 -53.160156 C 85.972656 -35.195312 76.625 -21.8125 68.925781 -21.8125 C 66.359375 -21.8125 65.074219 -24.199219 65.074219 -26.765625 C 65.074219 -27.863281 65.257812 -29.328125 65.808594 -30.796875 L 76.625 -60.859375 C 77.726562 -64.527344 78.457031 -67.824219 78.457031 -70.941406 C 78.457031 -88.355469 56.460938 -95.6875 46.195312 -98.804688 C 46.746094 -100.273438 46.929688 -101.921875 46.929688 -103.386719 C 46.929688 -111.820312 39.414062 -118.96875 31.164062 -118.96875 C 20.347656 -118.96875 13.933594 -109.4375 13.933594 -98.988281 C 13.933594 -94.40625 15.582031 -89.640625 18.515625 -85.972656 L 5.132812 -49.859375 C 4.765625 -48.394531 4.582031 -46.929688 4.582031 -45.828125 C 4.582031 -39.777344 9.347656 -36.664062 14.480469 -36.664062 C 19.613281 -36.664062 24.929688 -39.59375 27.128906 -45.460938 L 37.394531 -72.957031 C 42.527344 -71.308594 49.3125 -70.027344 49.3125 -63.792969 C 49.3125 -62.875 49.128906 -61.777344 48.761719 -60.492188 L 40.695312 -38.128906 C 39.230469 -33.914062 38.496094 -30.0625 38.496094 -26.398438 C 38.496094 -10.449219 51.144531 0 66.359375 0 C 86.339844 0 104.488281 -17.78125 115.304688 -48.761719 C 115.671875 -49.859375 115.855469 -50.777344 115.855469 -51.695312 C 115.855469 -57.195312 109.804688 -60.859375 103.9375 -60.859375 C 99.171875 -60.859375 94.589844 -58.660156 92.941406 -53.160156 Z M 92.941406 -53.160156 "/></g></g><g style="fill:rgb(0%,21.569824%,33.329773%);fill-opacity:1;"><g transform="translate(564.919354, 223.757255)"><path style="stroke:none;" d="M 65.441406 -51.695312 C 58.109375 -31.53125 46.5625 -21.8125 35.929688 -21.8125 C 29.328125 -21.8125 25.296875 -25.847656 25.296875 -30.796875 C 25.296875 -32.078125 25.664062 -33.546875 26.03125 -34.828125 L 43.996094 -85.972656 L 55.910156 -85.972656 C 65.257812 -85.972656 70.207031 -92.574219 70.207031 -98.621094 C 70.207031 -103.386719 67.09375 -107.605469 60.125 -107.605469 L 51.878906 -107.605469 L 64.160156 -143.351562 C 64.527344 -144.632812 64.710938 -145.734375 64.710938 -146.832031 C 64.710938 -153.617188 59.941406 -159.117188 51.878906 -159.117188 C 45.828125 -159.117188 40.695312 -154.898438 38.496094 -148.484375 L 23.832031 -107.605469 L 16.132812 -107.605469 C 6.234375 -107.605469 2.015625 -101.371094 2.015625 -95.507812 C 2.015625 -90.375 5.132812 -85.972656 10.082031 -85.972656 L 16.132812 -85.972656 L 0.734375 -41.796875 L 0.734375 -41.980469 C -0.734375 -37.578125 -1.464844 -33.546875 -1.464844 -29.695312 C -1.464844 -11 15.214844 0 34.097656 0 C 57.558594 0 77.175781 -17.414062 87.625 -47.476562 C 87.988281 -48.761719 88.355469 -50.042969 88.355469 -51.144531 C 88.355469 -56.644531 83.039062 -60.125 77.359375 -60.125 C 72.773438 -60.125 67.640625 -57.558594 65.441406 -51.695312 Z M 65.441406 -51.695312 "/></g></g><g style="fill:rgb(0%,21.569824%,33.329773%);fill-opacity:1;"><g transform="translate(624.859407, 223.757255)"><path style="stroke:none;" d="M 114.9375 -61.960938 C 109.804688 -61.960938 104.121094 -58.84375 101.921875 -51.878906 C 94.773438 -29.328125 83.222656 -21.8125 74.976562 -21.8125 C 71.859375 -21.8125 70.027344 -23.464844 70.027344 -26.398438 C 70.027344 -27.863281 70.390625 -29.695312 70.941406 -31.714844 L 91.472656 -91.105469 C 92.207031 -93.304688 92.574219 -95.324219 92.574219 -97.15625 C 92.574219 -105.222656 85.972656 -109.4375 79.191406 -109.4375 C 74.058594 -109.4375 68.742188 -107.054688 65.808594 -102.472656 C 61.960938 -104.855469 54.8125 -107.605469 45.460938 -107.605469 C 33.363281 -107.605469 20.164062 -101.003906 15.214844 -86.890625 L -2.015625 -37.578125 C -3.117188 -34.28125 -3.847656 -30.980469 -3.847656 -27.679688 C -3.847656 -12.464844 8.433594 0 24.5625 0 C 33.179688 0 41.980469 -3.847656 48.761719 -9.898438 C 54.628906 -1.464844 67.640625 0 73.140625 0 C 88.355469 0 108.703125 -7.699219 120.4375 -37.394531 C 123.003906 -44.546875 125.019531 -49.128906 125.019531 -52.425781 C 125.019531 -58.660156 120.253906 -61.960938 114.9375 -61.960938 Z M 54.445312 -63.792969 L 45.644531 -36.480469 C 41.796875 -24.5625 34.828125 -21.8125 30.980469 -21.8125 C 26.945312 -21.8125 24.929688 -24.378906 24.929688 -28.597656 C 24.929688 -30.980469 25.480469 -33.179688 26.03125 -34.828125 L 37.761719 -71.675781 C 41.246094 -82.859375 46.378906 -84.324219 49.3125 -84.324219 C 52.792969 -84.324219 56.644531 -80.839844 56.644531 -74.609375 C 56.644531 -71.859375 55.910156 -68.375 54.445312 -63.792969 Z M 54.445312 -63.792969 "/></g></g><g style="fill:rgb(0%,21.569824%,33.329773%);fill-opacity:1;"><g transform="translate(721.093397, 223.757255)"><path style="stroke:none;" d="M 114.9375 -61.960938 C 109.804688 -61.960938 104.121094 -58.84375 101.921875 -51.878906 C 94.773438 -29.328125 83.222656 -21.8125 74.976562 -21.8125 C 71.859375 -21.8125 70.027344 -23.464844 70.027344 -26.398438 C 70.027344 -27.863281 70.390625 -29.695312 70.941406 -31.714844 L 91.472656 -91.105469 C 92.207031 -93.304688 92.574219 -95.324219 92.574219 -97.15625 C 92.574219 -105.222656 85.972656 -109.4375 79.191406 -109.4375 C 74.058594 -109.4375 68.742188 -107.054688 65.808594 -102.472656 C 61.960938 -104.855469 54.8125 -107.605469 45.460938 -107.605469 C 33.363281 -107.605469 20.164062 -101.003906 15.214844 -86.890625 L -2.015625 -37.578125 C -3.117188 -34.28125 -3.847656 -30.980469 -3.847656 -27.679688 C -3.847656 -12.464844 8.433594 0 24.5625 0 C 33.179688 0 41.980469 -3.847656 48.761719 -9.898438 C 54.628906 -1.464844 67.640625 0 73.140625 0 C 88.355469 0 108.703125 -7.699219 120.4375 -37.394531 C 123.003906 -44.546875 125.019531 -49.128906 125.019531 -52.425781 C 125.019531 -58.660156 120.253906 -61.960938 114.9375 -61.960938 Z M 54.445312 -63.792969 L 45.644531 -36.480469 C 41.796875 -24.5625 34.828125 -21.8125 30.980469 -21.8125 C 26.945312 -21.8125 24.929688 -24.378906 24.929688 -28.597656 C 24.929688 -30.980469 25.480469 -33.179688 26.03125 -34.828125 L 37.761719 -71.675781 C 41.246094 -82.859375 46.378906 -84.324219 49.3125 -84.324219 C 52.792969 -84.324219 56.644531 -80.839844 56.644531 -74.609375 C 56.644531 -71.859375 55.910156 -68.375 54.445312 -63.792969 Z M 54.445312 -63.792969 "/></g></g><g style="fill:rgb(0%,21.569824%,33.329773%);fill-opacity:1;"><g transform="translate(817.327387, 223.757255)"><path style="stroke:none;" d="M 25.113281 -29.878906 L 63.609375 -141.335938 C 64.34375 -143.535156 64.710938 -145.734375 64.710938 -147.566406 C 64.710938 -154.53125 58.109375 -159.117188 52.609375 -159.117188 C 45.644531 -159.117188 41.0625 -155.265625 38.128906 -147.015625 L 0 -38.128906 C -1.464844 -33.914062 -2.199219 -30.0625 -2.199219 -26.214844 C -2.199219 -9.347656 11.730469 0 27.863281 0 C 45.277344 0 67.09375 -10.816406 79.925781 -48.945312 C 80.292969 -50.226562 80.472656 -51.511719 80.472656 -52.609375 C 80.472656 -58.476562 75.339844 -62.691406 69.660156 -62.691406 C 65.074219 -62.691406 60.125 -59.941406 57.558594 -53.160156 C 49.3125 -31.164062 38.679688 -21.8125 30.0625 -21.8125 C 26.398438 -21.8125 24.378906 -24.015625 24.378906 -26.765625 C 24.378906 -27.496094 24.746094 -28.78125 25.113281 -29.878906 Z M 25.113281 -29.878906 "/></g></g><g style="fill:rgb(0%,21.569824%,33.329773%);fill-opacity:1;"><g transform="translate(868.468909, 223.757255)"><path style="stroke:none;" d="M 114.9375 -61.960938 C 109.804688 -61.960938 104.121094 -58.84375 101.921875 -51.878906 C 94.773438 -29.328125 83.222656 -21.8125 74.976562 -21.8125 C 71.859375 -21.8125 70.027344 -23.464844 70.027344 -26.398438 C 70.027344 -27.863281 70.390625 -29.695312 70.941406 -31.714844 L 91.472656 -91.105469 C 92.207031 -93.304688 92.574219 -95.324219 92.574219 -97.15625 C 92.574219 -105.222656 85.972656 -109.4375 79.191406 -109.4375 C 74.058594 -109.4375 68.742188 -107.054688 65.808594 -102.472656 C 61.960938 -104.855469 54.8125 -107.605469 45.460938 -107.605469 C 33.363281 -107.605469 20.164062 -101.003906 15.214844 -86.890625 L -2.015625 -37.578125 C -3.117188 -34.28125 -3.847656 -30.980469 -3.847656 -27.679688 C -3.847656 -12.464844 8.433594 0 24.5625 0 C 33.179688 0 41.980469 -3.847656 48.761719 -9.898438 C 54.628906 -1.464844 67.640625 0 73.140625 0 C 88.355469 0 108.703125 -7.699219 120.4375 -37.394531 C 123.003906 -44.546875 125.019531 -49.128906 125.019531 -52.425781 C 125.019531 -58.660156 120.253906 -61.960938 114.9375 -61.960938 Z M 54.445312 -63.792969 L 45.644531 -36.480469 C 41.796875 -24.5625 34.828125 -21.8125 30.980469 -21.8125 C 26.945312 -21.8125 24.929688 -24.378906 24.929688 -28.597656 C 24.929688 -30.980469 25.480469 -33.179688 26.03125 -34.828125 L 37.761719 -71.675781 C 41.246094 -82.859375 46.378906 -84.324219 49.3125 -84.324219 C 52.792969 -84.324219 56.644531 -80.839844 56.644531 -74.609375 C 56.644531 -71.859375 55.910156 -68.375 54.445312 -63.792969 Z M 54.445312 -63.792969 "/></g></g><g style="fill:rgb(0%,21.569824%,33.329773%);fill-opacity:1;"><g transform="translate(964.702899, 223.757255)"><path style="stroke:none;" d="M 49.3125 -124.46875 C 57.558594 -124.46875 64.34375 -131.253906 64.34375 -139.683594 C 64.34375 -147.933594 57.558594 -154.53125 49.3125 -154.53125 C 41.0625 -154.53125 34.28125 -147.933594 34.28125 -139.683594 C 34.28125 -131.253906 41.0625 -124.46875 49.3125 -124.46875 Z M 24.5625 -30.980469 L 44.726562 -88.539062 C 45.460938 -90.921875 46.378906 -93.488281 46.378906 -95.324219 C 46.378906 -103.386719 40.328125 -107.605469 34.097656 -107.605469 C 28.414062 -107.605469 22.363281 -103.570312 19.429688 -94.957031 C 13.566406 -77.726562 5.867188 -55.910156 0 -38.863281 C -1.101562 -35.195312 -2.566406 -30.246094 -2.566406 -27.128906 C -2.566406 -9.898438 11.730469 0 28.597656 0 C 46.5625 0 66.359375 -11 79.191406 -48.945312 C 79.558594 -50.042969 79.742188 -51.144531 79.742188 -52.246094 C 79.742188 -57.925781 74.242188 -61.410156 68.742188 -61.410156 C 63.792969 -61.410156 58.84375 -58.84375 56.644531 -53.160156 C 48.027344 -29.328125 38.3125 -21.8125 30.980469 -21.8125 C 26.765625 -21.8125 24.015625 -24.5625 24.015625 -28.046875 C 24.015625 -28.964844 24.199219 -29.878906 24.5625 -30.980469 Z M 24.5625 -30.980469 "/></g></g><g style="fill:rgb(0%,21.569824%,33.329773%);fill-opacity:1;"><g transform="translate(1015.294514, 223.757255)"><path style="stroke:none;" d="M 102.289062 -52.792969 C 94.222656 -30.796875 84.140625 -21.8125 75.523438 -21.8125 C 72.226562 -21.8125 70.390625 -23.464844 70.390625 -26.582031 C 70.390625 -27.863281 70.757812 -29.328125 71.308594 -31.164062 L 85.605469 -71.859375 C 86.890625 -75.523438 87.625 -78.824219 87.625 -81.941406 C 87.625 -96.605469 75.160156 -107.605469 60.492188 -107.605469 C 53.34375 -107.605469 47.660156 -105.953125 42.894531 -102.472656 C 41.796875 -105.773438 37.210938 -107.605469 32.261719 -107.605469 C 27.128906 -107.605469 22.179688 -105.222656 20.347656 -100.089844 L -10.265625 -14.480469 C -10.816406 -12.832031 -11 -11.367188 -11 -9.898438 C -11 -3.117188 -5.683594 0.367188 0.183594 0.367188 C 6.597656 0.367188 13.933594 -3.667969 16.679688 -11.914062 C 23.097656 -29.695312 31.894531 -54.8125 38.128906 -72.410156 C 43.078125 -81.574219 49.496094 -85.972656 54.628906 -85.972656 C 57.925781 -85.972656 60.308594 -83.773438 60.308594 -80.292969 C 60.308594 -79.007812 59.941406 -77.359375 59.394531 -75.707031 L 46.011719 -37.945312 C 44.546875 -33.730469 43.628906 -29.695312 43.628906 -25.847656 C 43.628906 -8.980469 57.558594 0 73.140625 0 C 91.839844 0 111.820312 -12.648438 124.46875 -48.394531 C 125.019531 -49.859375 125.386719 -51.328125 125.386719 -52.609375 C 125.386719 -58.476562 120.070312 -61.59375 114.570312 -61.59375 C 109.621094 -61.59375 104.121094 -58.84375 102.289062 -52.792969 Z M 102.289062 -52.792969 "/></g></g><g style="fill:rgb(0%,21.569824%,33.329773%);fill-opacity:1;"><g transform="translate(1111.528551, 223.757255)"><path style="stroke:none;" d="M 114.9375 -61.960938 C 109.804688 -61.960938 104.121094 -58.84375 101.921875 -51.878906 C 94.773438 -29.328125 83.222656 -21.8125 74.976562 -21.8125 C 71.859375 -21.8125 70.027344 -23.464844 70.027344 -26.398438 C 70.027344 -27.863281 70.390625 -29.695312 70.941406 -31.714844 L 91.472656 -91.105469 C 92.207031 -93.304688 92.574219 -95.324219 92.574219 -97.15625 C 92.574219 -105.222656 85.972656 -109.4375 79.191406 -109.4375 C 74.058594 -109.4375 68.742188 -107.054688 65.808594 -102.472656 C 61.960938 -104.855469 54.8125 -107.605469 45.460938 -107.605469 C 33.363281 -107.605469 20.164062 -101.003906 15.214844 -86.890625 L -2.015625 -37.578125 C -3.117188 -34.28125 -3.847656 -30.980469 -3.847656 -27.679688 C -3.847656 -12.464844 8.433594 0 24.5625 0 C 33.179688 0 41.980469 -3.847656 48.761719 -9.898438 C 54.628906 -1.464844 67.640625 0 73.140625 0 C 88.355469 0 108.703125 -7.699219 120.4375 -37.394531 C 123.003906 -44.546875 125.019531 -49.128906 125.019531 -52.425781 C 125.019531 -58.660156 120.253906 -61.960938 114.9375 -61.960938 Z M 54.445312 -63.792969 L 45.644531 -36.480469 C 41.796875 -24.5625 34.828125 -21.8125 30.980469 -21.8125 C 26.945312 -21.8125 24.929688 -24.378906 24.929688 -28.597656 C 24.929688 -30.980469 25.480469 -33.179688 26.03125 -34.828125 L 37.761719 -71.675781 C 41.246094 -82.859375 46.378906 -84.324219 49.3125 -84.324219 C 52.792969 -84.324219 56.644531 -80.839844 56.644531 -74.609375 C 56.644531 -71.859375 55.910156 -68.375 54.445312 -63.792969 Z M 54.445312 -63.792969 "/></g></g><g style="fill:rgb(0%,21.569824%,33.329773%);fill-opacity:1;"><g transform="translate(1207.762588, 223.757255)"><path style="stroke:none;" d="M 65.441406 -51.695312 C 58.109375 -31.53125 46.5625 -21.8125 35.929688 -21.8125 C 29.328125 -21.8125 25.296875 -25.847656 25.296875 -30.796875 C 25.296875 -32.078125 25.664062 -33.546875 26.03125 -34.828125 L 43.996094 -85.972656 L 55.910156 -85.972656 C 65.257812 -85.972656 70.207031 -92.574219 70.207031 -98.621094 C 70.207031 -103.386719 67.09375 -107.605469 60.125 -107.605469 L 51.878906 -107.605469 L 64.160156 -143.351562 C 64.527344 -144.632812 64.710938 -145.734375 64.710938 -146.832031 C 64.710938 -153.617188 59.941406 -159.117188 51.878906 -159.117188 C 45.828125 -159.117188 40.695312 -154.898438 38.496094 -148.484375 L 23.832031 -107.605469 L 16.132812 -107.605469 C 6.234375 -107.605469 2.015625 -101.371094 2.015625 -95.507812 C 2.015625 -90.375 5.132812 -85.972656 10.082031 -85.972656 L 16.132812 -85.972656 L 0.734375 -41.796875 L 0.734375 -41.980469 C -0.734375 -37.578125 -1.464844 -33.546875 -1.464844 -29.695312 C -1.464844 -11 15.214844 0 34.097656 0 C 57.558594 0 77.175781 -17.414062 87.625 -47.476562 C 87.988281 -48.761719 88.355469 -50.042969 88.355469 -51.144531 C 88.355469 -56.644531 83.039062 -60.125 77.359375 -60.125 C 72.773438 -60.125 67.640625 -57.558594 65.441406 -51.695312 Z M 65.441406 -51.695312 "/></g></g><g style="fill:rgb(0%,21.569824%,33.329773%);fill-opacity:1;"><g transform="translate(1272.705046, 223.618482)"><path style="stroke:none;" d="M 25.300781 -19.386719 C 19.859375 -19.386719 15.605469 -15.132812 15.605469 -9.695312 C 15.605469 -4.375 19.859375 0 25.300781 0 C 30.621094 0 34.992188 -4.375 34.992188 -9.695312 C 34.992188 -15.132812 30.621094 -19.386719 25.300781 -19.386719 Z M 25.300781 -19.386719 "/></g></g><g style="fill:rgb(0%,21.569824%,33.329773%);fill-opacity:1;"><g transform="translate(1327.320437, 223.618482)"><path style="stroke:none;" d="M 11.585938 -55.328125 L -19.980469 33.574219 C -20.453125 34.875 -20.6875 36.175781 -20.6875 37.359375 C -20.6875 42.324219 -16.550781 45.515625 -12.175781 45.515625 C -8.511719 45.515625 -4.730469 43.269531 -2.835938 37.710938 L 29.792969 -55.328125 L 38.421875 -55.445312 C 43.976562 -55.5625 46.578125 -59.582031 46.578125 -63.011719 C 46.578125 -66.324219 44.097656 -69.394531 39.722656 -69.394531 L 34.875 -69.394531 L 41.496094 -87.957031 C 42.441406 -90.792969 44.6875 -92.566406 46.699219 -92.566406 C 49.179688 -92.566406 50.125 -91.148438 50.125 -89.140625 C 50.125 -88.429688 50.007812 -87.71875 49.769531 -86.894531 C 49.179688 -85.710938 48.945312 -84.648438 48.945312 -83.582031 C 48.945312 -79.445312 52.964844 -76.609375 57.101562 -76.609375 C 60.882812 -76.609375 64.785156 -78.972656 66.085938 -84.765625 C 66.441406 -86.421875 66.675781 -87.957031 66.675781 -89.492188 C 66.675781 -99.898438 58.636719 -107.699219 48.351562 -107.699219 C 38.304688 -107.699219 28.253906 -102.023438 23.878906 -89.730469 L 16.667969 -69.394531 L 13.59375 -69.394531 C 6.265625 -69.394531 3.191406 -65.257812 3.191406 -61.476562 C 3.191406 -58.164062 5.4375 -55.328125 9.101562 -55.328125 Z M 11.585938 -55.328125 "/></g></g><g style="fill:rgb(0%,21.569824%,33.329773%);fill-opacity:1;"><g transform="translate(1373.542707, 223.618482)"><path style="stroke:none;" d="M 31.800781 -80.273438 C 37.121094 -80.273438 41.496094 -84.648438 41.496094 -90.085938 C 41.496094 -95.40625 37.121094 -99.660156 31.800781 -99.660156 C 26.480469 -99.660156 22.109375 -95.40625 22.109375 -90.085938 C 22.109375 -84.648438 26.480469 -80.273438 31.800781 -80.273438 Z M 15.839844 -19.980469 L 28.847656 -57.101562 C 29.320312 -58.636719 29.910156 -60.292969 29.910156 -61.476562 C 29.910156 -66.675781 26.007812 -69.394531 21.988281 -69.394531 C 18.324219 -69.394531 14.421875 -66.796875 12.53125 -61.238281 C 8.75 -50.125 3.78125 -36.058594 0 -25.0625 C -0.710938 -22.699219 -1.65625 -19.507812 -1.65625 -17.496094 C -1.65625 -6.382812 7.566406 0 18.441406 0 C 30.027344 0 42.796875 -7.09375 51.070312 -31.566406 C 51.308594 -32.273438 51.425781 -32.984375 51.425781 -33.691406 C 51.425781 -37.359375 47.878906 -39.605469 44.332031 -39.605469 C 41.140625 -39.605469 37.949219 -37.949219 36.53125 -34.285156 C 30.972656 -18.914062 24.707031 -14.070312 19.980469 -14.070312 C 17.261719 -14.070312 15.488281 -15.839844 15.488281 -18.089844 C 15.488281 -18.679688 15.605469 -19.269531 15.839844 -19.980469 Z M 15.839844 -19.980469 "/></g></g></g></svg>